<?xml version="1.0" encoding="utf-8"?>
<!-- Generator: Adobe Illustrator 24.1.2, SVG Export Plug-In . SVG Version: 6.00 Build 0)  -->
<svg version="1.1" id="Layer_1" xmlns="http://www.w3.org/2000/svg" xmlns:xlink="http://www.w3.org/1999/xlink" x="0px" y="0px"
	 viewBox="0 0 419.7 72" style="enable-background:new 0 0 419.7 72;" xml:space="preserve">
<style type="text/css">
	.st0{fill:#FFFFFF;}
	.st1{fill:#6B953E;}
</style>
<path class="st0" d="M7.8,7.8C7.9,6.6,8,5.5,8,4.5C8,3,7.9,2.1,7.9,2.1h12.2c0,0,0.2,0.9,0.2,2.6c0,1-0.1,2.1-0.3,3.6l-3.4,22.2
	L30,17.7h14.2L28,32.4l11,24.5H24.9L18,41.7L14.3,45l-1.9,11.8H0L7.8,7.8z"/>
<path class="st0" d="M41.8,56.9c0,0-0.3-1-0.3-2.8c0-1,0.1-2.1,0.3-3.4L46,23.4c0.2-1.2,0.2-2.3,0.2-3.3c0-1.5-0.2-2.5-0.2-2.5h12.3
	c0,0,0.2,0.9,0.2,2.6c0,1-0.1,2.1-0.3,3.6l-4.2,27.2c-0.2,1.1-0.2,2.1-0.2,2.9c0,1.7,0.2,2.8,0.2,2.8H41.8z M53.8,13.3
	c-3.3,0-6-1.9-6-5.5c0-4.6,3.7-7.9,8.2-7.9c3.4,0,6,1.9,6,5.5C61.9,10,58.3,13.3,53.8,13.3z"/>
<path class="st0" d="M87.3,56.9c0,0-0.3-1-0.3-2.8c0-0.6,0-1.4,0.1-2.3c-3.3,3.8-8.3,6-13.3,6c-9.6,0-14.9-6.9-14.9-16.2
	c0-12.1,7.9-24.6,21.4-24.6c4.1,0,8.9,1.5,11,5.3c0.2-1.8,0.5-3.6,2.2-14.5c0.2-1.2,0.2-2.3,0.2-3.3c0-1.5-0.2-2.5-0.2-2.5h12.3
	c0,0,0.2,0.9,0.2,2.6c0,1-0.1,2.1-0.3,3.6l-6.8,42.9c-0.2,1.1-0.2,2.1-0.2,2.9c0,1.7,0.2,2.8,0.2,2.8H87.3z M82,27.1
	c-6.5,0-10.5,6.2-10.5,12.2c0,4.5,2.6,7.9,7.3,7.9c6.5,0,10.5-6.2,10.5-12.2C89.3,30.4,86.7,27.1,82,27.1z"/>
<path class="st0" d="M132.6,56.9c0,0-0.3-1-0.3-2.8c0-0.6,0-1.4,0.1-2.3c-3.3,3.8-8.3,6-13.3,6c-9.6,0-14.9-6.9-14.9-16.2
	c0-12.1,7.9-24.6,21.4-24.6c4.1,0,8.9,1.5,11,5.3c0.2-1.8,0.5-3.6,2.2-14.5c0.2-1.2,0.2-2.3,0.2-3.3c0-1.5-0.2-2.5-0.2-2.5h12.3
	c0,0,0.2,0.9,0.2,2.6c0,1-0.1,2.1-0.3,3.6l-6.8,42.9c-0.2,1.1-0.2,2.1-0.2,2.9c0,1.7,0.2,2.8,0.2,2.8H132.6z M127.4,27.1
	c-6.5,0-10.5,6.2-10.5,12.2c0,4.5,2.6,7.9,7.3,7.9c6.5,0,10.5-6.2,10.5-12.2C134.7,30.4,132.1,27.1,127.4,27.1z"/>
<path class="st0" d="M172.2,41.8c-3.3,0-6.8-0.4-10.6-1.3V41c0,5.2,3.6,7.5,8.3,7.5s8.7-1.9,11.9-3.9l4,6.7
	c-5.6,4.4-11.1,6.4-19.1,6.4c-10.2,0-17.3-5.7-17.3-16.3c0-14.5,12.1-24.5,24.8-24.5c7.9,0,15.7,2.7,15.7,10.9
	C189.9,36.1,182.9,41.8,172.2,41.8z M174.5,24.5c-5.6,0-11,5.2-11.8,9c2.1,0.2,3.9,0.2,5.6,0.2c4.1,0,11-1,11-5.9
	C179.2,25.4,176.9,24.5,174.5,24.5z"/>
<path class="st0" d="M246.4,55.9C245,65.1,240.9,72,230.1,72c-2,0-4.4-0.2-6.4-0.8l1.8-9.9c1.1,0.4,2.3,0.6,3.4,0.6
	c3.8,0,4.6-3.5,5.1-6.6l5-31.4c0.6-4,2-6.2,2-6.2h12.2c0,0-1.3,2.4-1.8,5.7L246.4,55.9z M246.9,13.3c-3.3,0-6-1.9-6-5.5
	c0-4.6,3.7-7.9,8.2-7.9c3.4,0,6,1.9,6,5.5C255.1,10.1,251.4,13.3,246.9,13.3z"/>
<path class="st0" d="M269.9,57.7c-10.2,0-18-5.8-18-16.5c0-13.8,10.4-24.2,24.5-24.2c10.2,0,18,5.9,18,16.6
	C294.4,47.4,284,57.7,269.9,57.7z M274.8,27.2c-6.5,0-10.2,6.4-10.2,12.2c0,4.4,2.4,7.8,7.1,7.8c6.5,0,10.2-6.4,10.2-12.2
	C281.8,30.5,279.4,27.2,274.8,27.2z"/>
<path class="st0" d="M319.7,56.9c0,0-0.3-1-0.3-2.8c0-1,0.1-2.1,0.3-3.4l2.2-14.2c0.2-1.3,0.4-2.6,0.4-3.9c0-3.3-1.3-5.1-4.7-5.1
	c-5.6,0-7.4,5.3-8.1,10l-3.1,19.4h-12.4l5.2-33.3c0.2-1.2,0.2-2.5,0.2-3.4c0-1.5-0.2-2.5-0.2-2.5h12.2c0,0,0.2,0.9,0.2,2.6
	c0,0.8-0.1,1.8-0.2,2.9h0.1c2.9-3.8,7.1-6.3,11.9-6.3c7.8,0,11.6,3.7,11.6,11.4c0,1.8-0.2,3.6-0.5,5.4l-2.8,17.3
	c-0.2,1.1-0.2,2.1-0.2,2.9c0,1.7,0.2,2.8,0.2,2.8H319.7z"/>
<path class="st0" d="M369.6,17.7H382l-5.3,33.4c-0.2,1.1-0.2,2.1-0.2,2.9c0,1.7,0.2,2.8,0.2,2.8h-11.5c0,0-0.3-1-0.3-2.8
	c0-0.6,0-1.4,0.1-2.3h-0.1c-3.3,3.8-8.3,6-13.3,6c-9.6,0-14.9-6.9-14.9-16.2c0-12.1,7.9-24.6,21.4-24.6c4.1,0,8.9,1.5,11,5.3
	C369.2,20.7,369.4,19.2,369.6,17.7z M359.9,27.1c-6.5,0-10.5,6.2-10.5,12.2c0,4.5,2.6,7.9,7.3,7.9c6.5,0,10.5-6.2,10.5-12.2
	C367.2,30.4,364.6,27.1,359.9,27.1z"/>
<path class="st0" d="M404.1,56.9c0,0-0.3-1-0.3-2.8c0-1,0.1-2.1,0.3-3.4l2.3-14.5c0.2-1.2,0.4-2.5,0.4-3.7c0-3.3-1.3-5.1-4.7-5.1
	c-5.6,0-7.5,5.5-8.2,10.1l-3.1,19.3h-12.4l7.8-49.1c0.2-1.2,0.2-2.3,0.2-3.3c0-1.5-0.2-2.5-0.2-2.5h12.3c0,0,0.2,0.9,0.2,2.6
	c0,1-0.1,2.1-0.3,3.6L396.2,23c2.9-3.8,7.1-6.1,11.9-6.1c7.8,0,11.6,3.7,11.6,11.4c0,1.8-0.2,3.6-0.5,5.3l-2.8,17.5
	c-0.2,1.1-0.2,2.1-0.2,2.9c0,1.7,0.2,2.8,0.2,2.8H404.1z"/>
<path class="st1" d="M238.6,33.8c-3.3,4.6-7.2,9.4-11.5,13.2l10.7,14l-0.2,0.8h-15.2l-4.5-6.3c-6,4.5-11.7,7.4-19.4,7.4
	c-9.4,0-17.5-3.9-17.5-14.3c0-10.3,7.8-16.4,16.5-20c-2.2-3.2-3.9-6.4-3.9-10.4c0-11,9.6-16.5,19.9-16.5c7.3,0,14.9,3.2,14.9,11.5
	c0,8.1-6.5,14-13.2,17.5l6,8.7c3.3-3.1,6.3-6.9,8.8-10.6L238.6,33.8z M203.4,35.7c-4.4,2.2-9.2,4.9-9.2,10.4c0,3.9,3.1,6.3,6.8,6.3
	c4,0,8.1-2.1,11-4.9L203.4,35.7z M212.3,10.8c-3.5,0-6.3,2.4-6.3,6c0,2.6,2,4.7,3.3,6.7c3.3-1.9,7.5-4.5,7.5-8.7
	C216.9,12,214.7,10.8,212.3,10.8z"/>
</svg>
