<?xml version="1.0" encoding="utf-8"?>
<!-- Generator: Adobe Illustrator 24.1.2, SVG Export Plug-In . SVG Version: 6.00 Build 0)  -->
<svg version="1.1" id="Layer_1" xmlns="http://www.w3.org/2000/svg" xmlns:xlink="http://www.w3.org/1999/xlink" x="0px" y="0px"
	 viewBox="0 0 255.7 33.3" style="enable-background:new 0 0 255.7 33.3;" xml:space="preserve">
<style type="text/css">
	.st0{fill:#FFFFFF;}
	.st1{fill:#6C9400;}
</style>
<g>
	<path class="st0" d="M1.2,32.8c-0.4,0-0.6-0.1-0.9-0.3C0.1,32.2,0,32,0,31.6V1.2c0-0.3,0.1-0.6,0.3-0.8C0.6,0.1,0.8,0,1.2,0h13.1
		c2.6,0,4.8,0.4,6.7,1.2c1.9,0.8,3.4,2,4.5,3.5c1.1,1.6,1.6,3.5,1.6,5.9c0,2.4-0.5,4.3-1.6,5.9C24.4,18,23,19.2,21,19.9
		c-1.9,0.7-4.2,1.1-6.7,1.1H7.9v10.6c0,0.3-0.1,0.6-0.3,0.8c-0.2,0.2-0.5,0.3-0.9,0.3H1.2z M7.7,15.2h6.3c1.6,0,2.9-0.4,3.8-1.2
		c0.9-0.8,1.4-2,1.4-3.5c0-1.4-0.4-2.5-1.2-3.4c-0.8-0.9-2.1-1.3-4-1.3H7.7V15.2z"/>
	<path class="st0" d="M30.2,32.8c-0.4,0-0.6-0.1-0.9-0.3C29.1,32.2,29,32,29,31.6V1.2c0-0.3,0.1-0.6,0.3-0.8C29.6,0.1,29.9,0,30.2,0
		h12.7c4,0,7.2,0.9,9.5,2.7c2.3,1.8,3.5,4.4,3.5,7.8c0,2.3-0.6,4.2-1.7,5.7c-1.1,1.5-2.6,2.7-4.5,3.4l6.8,11.7
		c0.1,0.2,0.1,0.4,0.1,0.5c0,0.3-0.1,0.5-0.3,0.7c-0.2,0.2-0.4,0.3-0.7,0.3h-5.3c-0.6,0-1-0.1-1.3-0.4c-0.3-0.3-0.5-0.6-0.6-0.8
		l-5.9-10.7h-5.8v10.8c0,0.3-0.1,0.6-0.3,0.8c-0.2,0.2-0.5,0.3-0.9,0.3H30.2z M36.6,14.9h6.1c1.8,0,3.1-0.4,3.9-1.2
		c0.8-0.8,1.3-1.9,1.3-3.3s-0.4-2.5-1.2-3.3c-0.8-0.8-2.1-1.2-3.9-1.2h-6.1V14.9z"/>
	<path class="st0" d="M60,32.8c-0.4,0-0.6-0.1-0.9-0.3c-0.2-0.2-0.3-0.5-0.3-0.8V1.2c0-0.3,0.1-0.6,0.3-0.8C59.3,0.1,59.6,0,60,0
		h21.7c0.4,0,0.6,0.1,0.9,0.3c0.2,0.2,0.3,0.5,0.3,0.8v3.7c0,0.3-0.1,0.6-0.3,0.8C82.3,5.9,82,6,81.7,6H66.1v7.4h14.5
		c0.4,0,0.6,0.1,0.9,0.3c0.2,0.2,0.3,0.5,0.3,0.8V18c0,0.3-0.1,0.6-0.3,0.8c-0.2,0.2-0.5,0.3-0.9,0.3H66.1v7.6h15.9
		c0.4,0,0.6,0.1,0.9,0.3c0.2,0.2,0.3,0.5,0.3,0.8v3.7c0,0.3-0.1,0.6-0.3,0.8c-0.2,0.2-0.5,0.3-0.9,0.3H60z"/>
	<path class="st0" d="M87.2,32.8c-0.3,0-0.6-0.1-0.8-0.3C86.1,32.2,86,32,86,31.6V1.2c0-0.3,0.1-0.6,0.4-0.8C86.6,0.1,86.9,0,87.2,0
		h4.5c0.5,0,0.8,0.1,1.1,0.4c0.2,0.3,0.4,0.4,0.5,0.6l8.8,15.9L111,0.9c0.1-0.1,0.2-0.3,0.5-0.6c0.2-0.2,0.6-0.4,1.1-0.4h4.5
		c0.4,0,0.6,0.1,0.9,0.3c0.2,0.2,0.3,0.5,0.3,0.8v30.5c0,0.3-0.1,0.6-0.3,0.8c-0.2,0.2-0.5,0.3-0.9,0.3h-4.9c-0.3,0-0.6-0.1-0.8-0.3
		c-0.2-0.2-0.3-0.5-0.3-0.8V12.7l-6.1,11.2c-0.2,0.3-0.4,0.5-0.6,0.7c-0.3,0.2-0.6,0.3-1,0.3H101c-0.4,0-0.8-0.1-1-0.3
		c-0.3-0.2-0.5-0.5-0.6-0.7l-6.1-11.2v18.9c0,0.3-0.1,0.6-0.3,0.8c-0.2,0.2-0.5,0.3-0.8,0.3H87.2z"/>
	<path class="st0" d="M122.5,32.8c-0.4,0-0.6-0.1-0.9-0.3c-0.2-0.2-0.3-0.5-0.3-0.8V1.2c0-0.3,0.1-0.6,0.3-0.8
		c0.2-0.2,0.5-0.3,0.9-0.3h5.4c0.4,0,0.6,0.1,0.9,0.3c0.2,0.2,0.3,0.5,0.3,0.8v30.5c0,0.3-0.1,0.6-0.3,0.8c-0.2,0.2-0.5,0.3-0.9,0.3
		H122.5z"/>
	<path class="st0" d="M146,33.3c-2.8,0-5.3-0.5-7.4-1.4c-2.1-0.9-3.7-2.3-4.9-4.3c-1.2-1.9-1.7-4.4-1.7-7.3V1.2
		c0-0.3,0.1-0.6,0.3-0.8c0.2-0.2,0.5-0.3,0.9-0.3h5.2c0.4,0,0.6,0.1,0.9,0.3c0.2,0.2,0.3,0.5,0.3,0.8v19.1c0,2.3,0.6,4,1.7,5.2
		c1.1,1.1,2.7,1.7,4.7,1.7c2,0,3.5-0.6,4.7-1.7c1.1-1.1,1.7-2.8,1.7-5.2V1.2c0-0.3,0.1-0.6,0.4-0.8c0.2-0.2,0.5-0.3,0.8-0.3h5.3
		c0.3,0,0.6,0.1,0.8,0.3c0.2,0.2,0.3,0.5,0.3,0.8v19.1c0,3-0.6,5.4-1.7,7.3c-1.2,1.9-2.8,3.3-4.8,4.3
		C151.3,32.8,148.8,33.3,146,33.3z"/>
	<path class="st0" d="M163.9,32.8c-0.3,0-0.6-0.1-0.8-0.3c-0.2-0.2-0.4-0.5-0.4-0.8V1.2c0-0.3,0.1-0.6,0.4-0.8
		c0.2-0.2,0.5-0.3,0.8-0.3h4.5c0.5,0,0.8,0.1,1.1,0.4c0.2,0.3,0.4,0.4,0.5,0.6l8.8,15.9l8.9-15.9c0.1-0.1,0.2-0.3,0.5-0.6
		c0.2-0.2,0.6-0.4,1.1-0.4h4.5c0.4,0,0.6,0.1,0.9,0.3c0.2,0.2,0.3,0.5,0.3,0.8v30.5c0,0.3-0.1,0.6-0.3,0.8c-0.2,0.2-0.5,0.3-0.9,0.3
		h-4.9c-0.3,0-0.6-0.1-0.8-0.3c-0.2-0.2-0.3-0.5-0.3-0.8V12.7l-6.1,11.2c-0.2,0.3-0.4,0.5-0.6,0.7c-0.3,0.2-0.6,0.3-1,0.3h-2.3
		c-0.4,0-0.8-0.1-1-0.3c-0.3-0.2-0.5-0.5-0.6-0.7L170,12.7v18.9c0,0.3-0.1,0.6-0.3,0.8c-0.2,0.2-0.5,0.3-0.8,0.3H163.9z"/>
	<path class="st1" d="M207.6,32.8c-0.4,0-0.6-0.1-0.9-0.3c-0.2-0.2-0.3-0.5-0.3-0.8V6.5h-8.7c-0.3,0-0.6-0.1-0.8-0.3
		c-0.2-0.2-0.3-0.5-0.3-0.8V1.2c0-0.3,0.1-0.6,0.3-0.8c0.2-0.2,0.5-0.3,0.8-0.3h25.2c0.4,0,0.6,0.1,0.9,0.3c0.2,0.2,0.3,0.5,0.3,0.8
		v4.2c0,0.3-0.1,0.6-0.3,0.8c-0.2,0.2-0.5,0.3-0.9,0.3h-8.7v25.1c0,0.3-0.1,0.6-0.3,0.8c-0.2,0.2-0.5,0.3-0.9,0.3H207.6z"/>
	<path class="st1" d="M237.4,32.8c-0.5,0-0.9-0.1-1.2-0.4c-0.3-0.3-0.5-0.6-0.6-1l-10.1-30c0-0.2,0-0.3,0-0.4c0-0.2,0.1-0.5,0.3-0.7
		c0.2-0.2,0.4-0.3,0.7-0.3h5c0.5,0,0.9,0.1,1.1,0.4c0.3,0.3,0.4,0.5,0.5,0.7l7.5,22.9L248,1.1c0.1-0.2,0.3-0.5,0.5-0.7
		c0.3-0.3,0.6-0.4,1.1-0.4h5c0.3,0,0.5,0.1,0.7,0.3c0.2,0.2,0.3,0.4,0.3,0.7c0,0.1,0,0.3,0,0.4l-10.1,30c-0.1,0.4-0.3,0.7-0.6,1
		c-0.3,0.3-0.7,0.4-1.3,0.4H237.4z"/>
</g>
</svg>
